<mxfile host="app.diagrams.net" modified="2024-04-02T07:57:34.787Z" agent="Mozilla/5.0 (Windows NT 10.0; Win64; x64) AppleWebKit/537.36 (KHTML, like Gecko) Chrome/123.0.0.0 Safari/537.36" etag="HZHaS7plTBpOLsEZCCLn" version="24.2.1" type="device">
  <diagram name="Страница — 1" id="CrJ080NFnx5UMRq6oB-1">
    <mxGraphModel dx="1434" dy="738" grid="1" gridSize="10" guides="1" tooltips="1" connect="1" arrows="1" fold="1" page="1" pageScale="1" pageWidth="827" pageHeight="1169" math="0" shadow="0">
      <root>
        <mxCell id="0" />
        <mxCell id="1" parent="0" />
        <mxCell id="cwPM9cC0hO0gW2126zwc-4" value="Клиент" style="shape=umlActor;verticalLabelPosition=bottom;verticalAlign=top;html=1;outlineConnect=0;" parent="1" vertex="1">
          <mxGeometry x="50" y="510" width="30" height="60" as="geometry" />
        </mxCell>
        <mxCell id="EJ0IEWzhoLk119A3AZwj-2" value="Система поиска утерянных вещей" style="rounded=0;whiteSpace=wrap;html=1;" parent="1" vertex="1">
          <mxGeometry x="180" y="280" width="120" height="60" as="geometry" />
        </mxCell>
        <mxCell id="EJ0IEWzhoLk119A3AZwj-4" value="" style="endArrow=none;html=1;rounded=0;exitX=0;exitY=1;exitDx=0;exitDy=0;entryX=1;entryY=0.3333333333333333;entryDx=0;entryDy=0;entryPerimeter=0;" parent="1" source="EJ0IEWzhoLk119A3AZwj-2" target="cwPM9cC0hO0gW2126zwc-4" edge="1">
          <mxGeometry width="50" height="50" relative="1" as="geometry">
            <mxPoint x="240" y="436" as="sourcePoint" />
            <mxPoint x="380.99" y="520" as="targetPoint" />
          </mxGeometry>
        </mxCell>
        <mxCell id="EJ0IEWzhoLk119A3AZwj-5" value="" style="endArrow=async;html=1;rounded=0;endFill=1;" parent="1" edge="1">
          <mxGeometry width="50" height="50" relative="1" as="geometry">
            <mxPoint x="110" y="430" as="sourcePoint" />
            <mxPoint x="150" y="350" as="targetPoint" />
          </mxGeometry>
        </mxCell>
        <mxCell id="EJ0IEWzhoLk119A3AZwj-6" value="1. Описание&lt;div&gt;&amp;nbsp;утерянных&lt;/div&gt;&lt;div&gt;&amp;nbsp;вещей&lt;/div&gt;" style="text;html=1;align=center;verticalAlign=middle;resizable=0;points=[];autosize=1;strokeColor=none;fillColor=none;" parent="1" vertex="1">
          <mxGeometry x="30" y="353" width="90" height="60" as="geometry" />
        </mxCell>
        <mxCell id="EJ0IEWzhoLk119A3AZwj-8" value="" style="endArrow=open;html=1;rounded=0;endFill=0;" parent="1" edge="1">
          <mxGeometry width="50" height="50" relative="1" as="geometry">
            <mxPoint x="180" y="380" as="sourcePoint" />
            <mxPoint x="140" y="460" as="targetPoint" />
          </mxGeometry>
        </mxCell>
        <mxCell id="EJ0IEWzhoLk119A3AZwj-9" value="3. Список вещей" style="text;html=1;align=center;verticalAlign=middle;resizable=0;points=[];autosize=1;strokeColor=none;fillColor=none;" parent="1" vertex="1">
          <mxGeometry x="160" y="425" width="120" height="30" as="geometry" />
        </mxCell>
        <mxCell id="EJ0IEWzhoLk119A3AZwj-20" style="edgeStyle=orthogonalEdgeStyle;rounded=0;orthogonalLoop=1;jettySize=auto;html=1;exitX=1;exitY=0.3333333333333333;exitDx=0;exitDy=0;exitPerimeter=0;entryX=0;entryY=0.5;entryDx=0;entryDy=0;strokeColor=default;align=center;verticalAlign=middle;fontFamily=Helvetica;fontSize=11;fontColor=default;labelBackgroundColor=default;endArrow=none;endFill=0;" parent="1" source="EJ0IEWzhoLk119A3AZwj-10" target="EJ0IEWzhoLk119A3AZwj-14" edge="1">
          <mxGeometry relative="1" as="geometry" />
        </mxCell>
        <mxCell id="EJ0IEWzhoLk119A3AZwj-10" value="Менеджер" style="shape=umlActor;verticalLabelPosition=bottom;verticalAlign=top;html=1;outlineConnect=0;" parent="1" vertex="1">
          <mxGeometry x="350" y="510" width="30" height="60" as="geometry" />
        </mxCell>
        <mxCell id="EJ0IEWzhoLk119A3AZwj-11" style="edgeStyle=orthogonalEdgeStyle;rounded=0;orthogonalLoop=1;jettySize=auto;html=1;exitX=1;exitY=0.3333333333333333;exitDx=0;exitDy=0;exitPerimeter=0;entryX=0;entryY=0.3333333333333333;entryDx=0;entryDy=0;entryPerimeter=0;endArrow=none;endFill=0;" parent="1" source="cwPM9cC0hO0gW2126zwc-4" target="EJ0IEWzhoLk119A3AZwj-10" edge="1">
          <mxGeometry relative="1" as="geometry" />
        </mxCell>
        <mxCell id="EJ0IEWzhoLk119A3AZwj-12" value="4. Список вещей" style="text;html=1;align=center;verticalAlign=middle;resizable=0;points=[];autosize=1;strokeColor=none;fillColor=none;fontFamily=Helvetica;fontSize=11;fontColor=default;labelBackgroundColor=default;" parent="1" vertex="1">
          <mxGeometry x="155" y="555" width="110" height="30" as="geometry" />
        </mxCell>
        <mxCell id="EJ0IEWzhoLk119A3AZwj-13" value="" style="endArrow=classic;html=1;rounded=0;" parent="1" edge="1">
          <mxGeometry width="50" height="50" relative="1" as="geometry">
            <mxPoint x="150" y="550" as="sourcePoint" />
            <mxPoint x="260" y="550" as="targetPoint" />
          </mxGeometry>
        </mxCell>
        <mxCell id="CFsz9s4VTtu9d3IQpdU6-7" style="edgeStyle=orthogonalEdgeStyle;rounded=0;orthogonalLoop=1;jettySize=auto;html=1;curved=1;" edge="1" parent="1" source="EJ0IEWzhoLk119A3AZwj-14" target="cwPM9cC0hO0gW2126zwc-4">
          <mxGeometry relative="1" as="geometry">
            <Array as="points">
              <mxPoint x="640" y="750" />
              <mxPoint x="190" y="750" />
              <mxPoint x="190" y="600" />
              <mxPoint x="110" y="600" />
              <mxPoint x="110" y="540" />
            </Array>
          </mxGeometry>
        </mxCell>
        <mxCell id="EJ0IEWzhoLk119A3AZwj-14" value="Система управления заказами" style="rounded=0;whiteSpace=wrap;html=1;" parent="1" vertex="1">
          <mxGeometry x="580" y="500" width="120" height="60" as="geometry" />
        </mxCell>
        <mxCell id="EJ0IEWzhoLk119A3AZwj-21" value="5. Сформированный запрос" style="text;html=1;align=center;verticalAlign=middle;resizable=0;points=[];autosize=1;strokeColor=none;fillColor=none;" parent="1" vertex="1">
          <mxGeometry x="405" y="490" width="180" height="30" as="geometry" />
        </mxCell>
        <mxCell id="EJ0IEWzhoLk119A3AZwj-22" value="" style="endArrow=classic;html=1;rounded=0;" parent="1" edge="1">
          <mxGeometry width="50" height="50" relative="1" as="geometry">
            <mxPoint x="430" y="520" as="sourcePoint" />
            <mxPoint x="540" y="520" as="targetPoint" />
          </mxGeometry>
        </mxCell>
        <mxCell id="CFsz9s4VTtu9d3IQpdU6-3" style="edgeStyle=orthogonalEdgeStyle;rounded=0;orthogonalLoop=1;jettySize=auto;html=1;exitX=0.25;exitY=0;exitDx=0;exitDy=0;entryX=0.75;entryY=0;entryDx=0;entryDy=0;curved=1;" edge="1" parent="1" source="EJ0IEWzhoLk119A3AZwj-2" target="EJ0IEWzhoLk119A3AZwj-2">
          <mxGeometry relative="1" as="geometry">
            <mxPoint x="205" y="270" as="sourcePoint" />
            <mxPoint x="265" y="270" as="targetPoint" />
            <Array as="points">
              <mxPoint x="205" y="280" />
              <mxPoint x="205" y="240" />
              <mxPoint x="270" y="240" />
            </Array>
          </mxGeometry>
        </mxCell>
        <mxCell id="CFsz9s4VTtu9d3IQpdU6-4" value="2. Поиск релевантных вещей" style="text;html=1;align=center;verticalAlign=middle;resizable=0;points=[];autosize=1;strokeColor=none;fillColor=none;" vertex="1" parent="1">
          <mxGeometry x="140" y="210" width="190" height="30" as="geometry" />
        </mxCell>
        <mxCell id="CFsz9s4VTtu9d3IQpdU6-5" style="edgeStyle=orthogonalEdgeStyle;rounded=0;orthogonalLoop=1;jettySize=auto;html=1;exitX=0.25;exitY=0;exitDx=0;exitDy=0;entryX=0.75;entryY=0;entryDx=0;entryDy=0;curved=1;" edge="1" parent="1">
          <mxGeometry relative="1" as="geometry">
            <mxPoint x="610" y="500" as="sourcePoint" />
            <mxPoint x="670" y="500" as="targetPoint" />
            <Array as="points">
              <mxPoint x="605" y="500" />
              <mxPoint x="605" y="460" />
              <mxPoint x="670" y="460" />
            </Array>
          </mxGeometry>
        </mxCell>
        <mxCell id="CFsz9s4VTtu9d3IQpdU6-6" value="6. Регистрация запроса" style="text;html=1;align=center;verticalAlign=middle;resizable=0;points=[];autosize=1;strokeColor=none;fillColor=none;" vertex="1" parent="1">
          <mxGeometry x="555" y="430" width="160" height="30" as="geometry" />
        </mxCell>
        <mxCell id="CFsz9s4VTtu9d3IQpdU6-8" value="7. Утерянные вещи" style="text;html=1;align=center;verticalAlign=middle;resizable=0;points=[];autosize=1;strokeColor=none;fillColor=none;" vertex="1" parent="1">
          <mxGeometry x="335" y="700" width="130" height="30" as="geometry" />
        </mxCell>
        <mxCell id="CFsz9s4VTtu9d3IQpdU6-9" value="" style="endArrow=classic;html=1;rounded=0;" edge="1" parent="1">
          <mxGeometry width="50" height="50" relative="1" as="geometry">
            <mxPoint x="460" y="730" as="sourcePoint" />
            <mxPoint x="340" y="730" as="targetPoint" />
            <Array as="points">
              <mxPoint x="400" y="730" />
            </Array>
          </mxGeometry>
        </mxCell>
      </root>
    </mxGraphModel>
  </diagram>
</mxfile>
